<svg xmlns="http://www.w3.org/2000/svg"  viewBox="0 0 66.106 52.887">
  <path id="Icon_awesome-github-alt" data-name="Icon awesome-github-alt" d="M25.63,40.955c0,2.878-1.5,7.588-5.054,7.588s-5.054-4.71-5.054-7.588,1.5-7.588,5.054-7.588,5.054,4.71,5.054,7.588ZM66.106,34c0,4.393-.441,9.048-2.41,13.084-5.22,10.549-19.57,10.3-29.844,10.3-10.439,0-25.644.372-31.07-10.3A29.479,29.479,0,0,1,0,34,23.684,23.684,0,0,1,5.715,18.355a21.559,21.559,0,0,1-1.06-6.721c0-2.961.675-4.448,2.011-7.134C12.9,4.5,16.9,5.739,21.65,9.458A52.753,52.753,0,0,1,33.866,8.081,47.507,47.507,0,0,1,44.938,9.348C49.621,5.671,53.615,4.5,59.785,4.5c1.35,2.686,2.011,4.173,2.011,7.134a21.256,21.256,0,0,1-1.06,6.638A23.729,23.729,0,0,1,66.106,34Zm-8.855,6.955c0-6.046-3.677-11.376-10.123-11.376a56.626,56.626,0,0,0-7.712.826,40.466,40.466,0,0,1-6.211.441,40.714,40.714,0,0,1-6.211-.441,55.707,55.707,0,0,0-7.712-.826c-6.445,0-10.123,5.33-10.123,11.376,0,12.092,11.073,13.951,20.713,13.951H36.51c9.682,0,20.741-1.845,20.741-13.951ZM45.875,33.366c-3.553,0-5.054,4.71-5.054,7.588s1.5,7.588,5.054,7.588,5.054-4.71,5.054-7.588S49.428,33.366,45.875,33.366Z" transform="translate(0 -4.5)" />
</svg>
