<svg xmlns="http://www.w3.org/2000/svg"  viewBox="0 0 50.898 50.887">
  <path id="Icon_awesome-instagram" data-name="Icon awesome-instagram" d="M25.449,14.634A13.047,13.047,0,1,0,38.5,27.681,13.026,13.026,0,0,0,25.449,14.634Zm0,21.529a8.482,8.482,0,1,1,8.482-8.482,8.5,8.5,0,0,1-8.482,8.482ZM42.073,14.1a3.043,3.043,0,1,1-3.043-3.043A3.036,3.036,0,0,1,42.073,14.1Zm8.641,3.089C50.521,13.113,49.59,9.5,46.6,6.527s-6.586-3.906-10.662-4.11c-4.2-.238-16.794-.238-21,0-4.065.193-7.676,1.124-10.662,4.1S.378,13.1.174,17.178c-.238,4.2-.238,16.794,0,21C.367,42.249,1.3,45.86,4.284,48.835s6.586,3.906,10.662,4.11c4.2.238,16.794.238,21,0,4.076-.193,7.687-1.124,10.662-4.11s3.906-6.586,4.11-10.662c.238-4.2.238-16.782,0-20.984ZM45.286,42.681a8.587,8.587,0,0,1-4.837,4.837c-3.35,1.329-11.3,1.022-15,1.022s-11.661.3-15-1.022a8.587,8.587,0,0,1-4.837-4.837c-1.329-3.35-1.022-11.3-1.022-15s-.3-11.661,1.022-15A8.587,8.587,0,0,1,10.45,7.844c3.35-1.329,11.3-1.022,15-1.022s11.661-.3,15,1.022a8.587,8.587,0,0,1,4.837,4.837c1.329,3.35,1.022,11.3,1.022,15S46.615,39.342,45.286,42.681Z" transform="translate(0.005 -2.238)" />
</svg>
