<svg xmlns="http://www.w3.org/2000/svg" viewBox="0 0 49.893 50.887">
  <path id="Icon_awesome-linkedin" data-name="Icon awesome-linkedin" d="M46.329,2.25H3.553A3.616,3.616,0,0,0,0,5.919V49.468a3.616,3.616,0,0,0,3.553,3.669H46.329a3.626,3.626,0,0,0,3.564-3.669V5.919A3.626,3.626,0,0,0,46.329,2.25ZM15.079,45.867H7.684V21.582H15.09V45.867Zm-3.7-27.6a4.374,4.374,0,1,1,4.288-4.373,4.333,4.333,0,0,1-4.288,4.373ZM42.8,45.867H35.4V34.054c0-2.817-.056-6.44-3.842-6.44-3.853,0-4.444,3.067-4.444,6.236V45.867H19.723V21.582h7.094V24.9h.1a7.763,7.763,0,0,1,7.005-3.919c7.484,0,8.876,5.032,8.876,11.574Z" transform="translate(0 -2.25)" />
</svg>
